<svg xmlns="http://www.w3.org/2000/svg" width="24" height="24" viewBox="0 0 24 24">
  <g id="Vector_Smart_Object_copy" data-name="Vector Smart Object copy" transform="translate(-12.497 -12)">
    <g id="Group_1" data-name="Group 1">
      <path id="Path_1" data-name="Path 1" d="M36.5,24a12.577,12.577,0,0,0-.208-2.27H24.745v4.54h6.986a7.222,7.222,0,0,1-2.681,3.844l3.6,2.81A12.092,12.092,0,0,0,36.5,24Z" fill="#3284ff"/>
      <path id="Path_2" data-name="Path 2" d="M24.9,16.865a7.013,7.013,0,0,1,4.564,1.66L32.8,15.21A11.564,11.564,0,0,0,24.745,12a12.384,12.384,0,0,0-10.936,6.644L17.9,21.7A7.5,7.5,0,0,1,24.9,16.865Z" fill="#ff3424"/>
      <path id="Path_3" data-name="Path 3" d="M13.886,29.5l3.949-3.078A7.042,7.042,0,0,1,17.9,21.7l-4.1-3.059A11.584,11.584,0,0,0,13.886,29.5Z" fill="#fb0"/>
      <path id="Path_4" data-name="Path 4" d="M17.835,26.422,13.886,29.5A12.386,12.386,0,0,0,24.745,36a11.566,11.566,0,0,0,7.91-3.076l-3.6-2.81A7.012,7.012,0,0,1,24.9,31.459,7.494,7.494,0,0,1,17.835,26.422Z" fill="#26b14c"/>
    </g>
  </g>
</svg>
