<svg xmlns="http://www.w3.org/2000/svg" width="282.002" height="26.986" viewBox="0 0 282.002 26.986">
  <path id="logo" d="M774.856,49.576a9.644,9.644,0,0,0-3.6.788l-.178-.184a7.011,7.011,0,0,1,5.1-2.865,4.345,4.345,0,0,1,3.252,1.393c.533-.5.887-.841.887-1.551,0-1.261-.861-1.552-1.119-3.233h-.023c-.508.419-1.575,1.365-2.108,1.813a35.383,35.383,0,0,0-4.347-2.969v-.026a1.333,1.333,0,0,0,.663-1.209V35.7a1.006,1.006,0,0,0-.586-.975V34.7a29.373,29.373,0,0,0,5.539-4.127,28.232,28.232,0,0,0,4.472,2.628v.026a1.024,1.024,0,0,0-.557,1.024V42.77c0,1.341.887,1.5.887,2.97,0,.71-.607,1.449-2.718,2.945-1.269.9-3.576,1.81-4.108,2.311C775.651,50.024,775.565,49.576,774.856,49.576Zm1.6-7.91a23.121,23.121,0,0,1,2.694,1.971h.025V34.52a17.93,17.93,0,0,1-2.693-1.735h-.026Zm87.783-3.641c0-4.556,3.1-7.278,6.378-9.085l.263.243a9.889,9.889,0,0,0-3.464,7.844c0,2.806.9,4.35,2.228,5.233a3,3,0,0,0,.741-2.458V34.465c0-1.97,1.782-3.341,3.517-4.522-2.219-.781-4.385-2.188-6.876-2.188-2.294,0-3.384.727-3.384,1.968a1.368,1.368,0,0,0,1.328,1.481,1.712,1.712,0,0,0,1.04-.269l-.155.754a2.867,2.867,0,0,1-.679.082c-1.224,0-2.056-.782-2.056-2.372,0-2.7,1.952-4.636,5.18-4.636,4.128,0,6.807,3.1,9.5,3.1,1.12,0,1.615-.35,1.615-1.105,0-.673-.417-1.051-1.12-1.24l.6-.431a2.124,2.124,0,0,1,1.093,1.888,3.3,3.3,0,0,1-3.49,3.478,6.437,6.437,0,0,1-1.326-.145V43.186A6.378,6.378,0,0,0,878.755,41l.259.334c-1.324,2.336-3.478,4.915-6.886,4.915C867.542,46.244,864.238,43.009,864.238,38.025Zm9.01-4.853v5.39c0,1.822-1.049,2.572-3.28,3.935a7.967,7.967,0,0,0,3.828.81,7.644,7.644,0,0,0,.988-.061V30.215c-.147-.038-.294-.081-.443-.126A3.528,3.528,0,0,0,873.247,33.172ZM801.7,40.664V28.941c0-.97-.393-1.509-1.067-1.509a1.092,1.092,0,0,0-1.232,1.132,2.475,2.475,0,0,0,.371,1.239l-.494-.028a2.864,2.864,0,0,1-.338-1.293,3.12,3.12,0,0,1,3.436-3.261c1.693,0,2.761,1.321,2.761,3.234v11.59a2.4,2.4,0,0,0,1.014,2.111v-14.7a1.052,1.052,0,0,0-.391-.97,3.315,3.315,0,0,0,.731-1.024h.053v7.978a4.037,4.037,0,0,0,1.613.351,3.9,3.9,0,0,0,1.639-.351v-4.2c-.258-.538-.676-1.024-1.144-1.024-.235,0-.366.053-.625.322l-.234-.189,2.836-3.072,3.515,3.046v.026a1.257,1.257,0,0,0-.886,1.322V41.625a1.545,1.545,0,0,0,1.27,1.664.763.763,0,0,0,.44-.273l.324-.344.222.214s-2.153,2.43-2.776,3.169a4.077,4.077,0,0,1-2.759-2.4l-2.474,2.507C804.176,45.275,801.7,43.764,801.7,40.664Zm4.842-4.256v6.031c.134.092.284.182.44.275a5.132,5.132,0,0,0,2.395.7,1.058,1.058,0,0,0,.521-.109,7.592,7.592,0,0,1-.1-1v-5.9a3.894,3.894,0,0,0-1.639-.351A4.04,4.04,0,0,0,806.547,36.408Zm3.252-.379V33.82a4.177,4.177,0,0,1-1.639.3,4.315,4.315,0,0,1-1.613-.3v2.209a4.315,4.315,0,0,1,1.613-.3h.008A4.156,4.156,0,0,1,809.8,36.029ZM702.722,43.953a4.557,4.557,0,0,0-4.116,1.97l-.18-.132c.662-2.495,2.542-4.466,5.184-4.466a7.628,7.628,0,0,1,5.336,2.024c2.312-2.367,2.921-3.39,2.921-4.837,0-.973-.205-2.209-2.389-3.242a16.383,16.383,0,0,0-2.671-.931l-.4.6a12.126,12.126,0,0,1,3.021,1.107,3.045,3.045,0,0,1,1.677,2.966,3.9,3.9,0,0,1-1.27,2.313h-.025c-.077-1.706-.666-2.535-4.9-3.469l-.364-.08c-.234.36-.464.709-.679,1.053a2.421,2.421,0,0,1-1.88,1.262,1.049,1.049,0,0,1-1.144-.947.922.922,0,0,1,1.016-1c.555,0,.972.68,1.3.68a.285.285,0,0,0,.254-.154l.66-1.005c-1.889-.455-4.14-1.357-4.14-3.7a3.339,3.339,0,0,1,.814-2.26h.024c.252,1.427,1.177,2.113,5.188,3.117l.4-.6-.281-.07c-2.443-.608-5.056-1.261-5.056-4.231,0-2.786,2.441-4.388,5.718-4.388a8.215,8.215,0,0,1,4.712,1.329l.472-.645.33.237c-1.2,1.648-2.354,3.325-3.5,5.008.38.107.735.212,1.062.328,3.238,1.116,3.989,2.386,3.989,4.86,0,3.521-4.014,6.962-6.733,9.459A6.386,6.386,0,0,0,702.722,43.953Zm-.254-15.24c0,1.365,1.94,1.643,4.8,2.365.365.093.711.179,1.039.266.53-.775,1.05-1.528,1.548-2.24a6.163,6.163,0,0,0-4.19-2.02C703.282,27.085,702.468,27.792,702.468,28.714ZM924.392,42.686V34.628a30.212,30.212,0,0,1-2.759-2.021h-.027v9.6a1.605,1.605,0,0,0,1.2.808c.286,0,.391-.08.783-.484l.232.214c-.805.863-2.241,2.448-2.967,3.236a28.567,28.567,0,0,0-3.019-2.4V43.55c.493-.243.625-.7.625-1.482V33.995c-.209-.376-.6-.76-.861-.76-.233,0-.427.122-.713.469l-.247-.282a40.711,40.711,0,0,0,2.941-2.971l2,1.913c.518-.4,1.61-1.356,2.187-1.913a39.022,39.022,0,0,0,4.453,3.047v.026a1.189,1.189,0,0,0-.674,1.158V42.23a1.217,1.217,0,0,0,.987,1.211c.261,0,.47-.188.754-.54l.233.217c-.693.752-1.907,2.188-2.475,2.885A3.532,3.532,0,0,1,924.392,42.686Zm-72.442,0V34.628a29.88,29.88,0,0,1-2.761-2.021h-.023v9.6a1.6,1.6,0,0,0,1.2.808c.285,0,.392-.08.781-.484l.235.214c-.806.863-2.24,2.448-2.967,3.236a28.667,28.667,0,0,0-3.02-2.4V43.55c.493-.243.625-.7.625-1.482V34.036c-.21-.377-.615-.775-.876-.775-.234,0-.413.148-.726.442l-.26-.281c1.039-.953,2.385-2.273,2.982-2.972l2.006,1.913c.515-.4,1.607-1.356,2.185-1.913a38.835,38.835,0,0,0,4.452,3.046v.026a1.19,1.19,0,0,0-.678,1.158v7.547a1.22,1.22,0,0,0,.991,1.211c.26,0,.469-.188.754-.54l.235.218c-.694.752-1.909,2.188-2.475,2.885A3.531,3.531,0,0,1,851.95,42.686Zm-29.63,0V34.628a29.828,29.828,0,0,1-2.758-2.021h-.026v9.6a1.6,1.6,0,0,0,1.2.808c.288,0,.392-.08.783-.484l.231.214c-.805.863-2.238,2.448-2.966,3.236a31.269,31.269,0,0,0-2.951-2.378v-.052c.336-.148.556-.472.556-1.437V34.036c-.208-.377-.587-.755-.848-.755-.233,0-.437.128-.745.423l-.248-.282a36.16,36.16,0,0,0,2.961-2.971l2,1.913c.516-.4,1.611-1.356,2.188-1.913A38.945,38.945,0,0,0,826.15,33.5v.026a1.189,1.189,0,0,0-.679,1.158V42.23a1.219,1.219,0,0,0,.992,1.211c.259,0,.469-.188.753-.54l.233.217c-.692.752-1.907,2.188-2.472,2.885A3.529,3.529,0,0,1,822.32,42.686Zm-164.231-4.7c0-4.44,3.026-7.095,6.227-8.856l.255.238a9.642,9.642,0,0,0-3.381,7.647c0,2.735.811,4.306,2.108,5.169a3.108,3.108,0,0,0,.789-2.463v-5.2c0-1.92,1.74-3.257,3.433-4.409-2.165-.76-4.279-2.134-6.71-2.134-2.237,0-3.3.712-3.3,1.921a1.336,1.336,0,0,0,1.3,1.444,1.678,1.678,0,0,0,1.017-.262l-.154.735a2.777,2.777,0,0,1-.66.078c-1.194,0-2.007-.761-2.007-2.312,0-2.814,1.9-4.52,5.056-4.52,4.032,0,6.642,3.021,9.274,3.021,1.091,0,1.573-.341,1.573-1.077,0-.657-.405-1.024-1.09-1.208l.584-.421a2.08,2.08,0,0,1,1.042,1.893,3.162,3.162,0,0,1-3.38,3.337,6.245,6.245,0,0,1-1.3-.141V43.021a5.256,5.256,0,0,0,3.87-2.877l.323.315c-1.217,2.7-3.247,5.544-7.167,5.544C661.318,46,658.089,42.85,658.089,37.989Zm8.792-4.729v5.254c0,1.778-1.066,2.55-3.244,3.878a7.958,7.958,0,0,0,3.78.748,7.776,7.776,0,0,0,.963-.06V30.375c-.143-.036-.286-.077-.429-.122A3.435,3.435,0,0,0,666.881,33.26ZM894.137,43.523V43.5c.391-.163.627-.512.627-1.483V28.752c-.236-.538-.522-.781-.86-.781a1,1,0,0,0-.729.433l-.285-.3c.913-.8,2.254-2.083,3.069-2.965a26.99,26.99,0,0,0,2.71,2.7v.026a1.146,1.146,0,0,0-.756,1.078v3.586c.52-.486,1.436-1.45,2.005-2.1,2.812,1.428,3.879,2.29,3.879,4.447v5.876a.982.982,0,0,0,.494,1v.025h0a39.955,39.955,0,0,0-5.6,4.232A23.879,23.879,0,0,0,894.137,43.523Zm3.776-1.349a23.114,23.114,0,0,1,2.708,1.562h.026v-8.3c0-.963-.73-1.968-2.709-2.722h-.025Zm14.371,1.887c-.515.4-1.609,1.357-2.188,1.915a38.416,38.416,0,0,0-4.452-3.047V42.9a1.189,1.189,0,0,0,.677-1.158V34.2a1.217,1.217,0,0,0-.99-1.212c-.259,0-.466.187-.753.538l-.235-.216c.69-.751,1.906-2.188,2.472-2.884a3.53,3.53,0,0,1,2.657,3.316V41.8a29.69,29.69,0,0,1,2.759,2.021h.026V34.04c-.254-.444-.537-.764-.877-.764-.233,0-.415.147-.7.442l-.247-.309c.937-.833,2.3-2.172,3.02-2.958.885.944,1.792,1.857,2.72,2.7v.027c-.526.182-.768.529-.768,1.482v7.735c.21.375.55.78.808.78.233,0,.391-.055.7-.35l.157.189c-.989,1-2.188,2.265-2.786,2.966Zm-24.368-.484V43.55c.389-.162.6-.62.6-1.564V34.061c-.234-.538-.521-.781-.86-.781a1,1,0,0,0-.727.432l-.287-.3c.916-.8,2.256-2.082,3.073-2.963a27.042,27.042,0,0,0,2.707,2.7v.025a1.073,1.073,0,0,0-.752,1.079V42.2c.44.591.78.808,1.17.808.21,0,.444-.024.805-.484l.237.214-2.968,3.236A34.961,34.961,0,0,0,887.917,43.577Zm-9.038-.081v-.027c.523-.3.707-.782.707-1.671V34.089a1.087,1.087,0,0,0-.836-.808,1.065,1.065,0,0,0-.767.431l-.272-.3c.816-.711,2.326-2.193,3.045-2.964l1.875,1.966,2.316-2.02a19.354,19.354,0,0,0,1.72,2.208,8.483,8.483,0,0,0-1.952,3.181h-.026a12.411,12.411,0,0,0-1.93-3.019h-.023V42.31c.131.322.6.891,1.1.891.411,0,.752-.434,1.142-.809l.237.241c-.848.865-2.39,2.536-3.1,3.344C881.336,45.307,879.712,44.08,878.879,43.5Zm-50.956.107V43.55c.39-.162.57-.62.57-1.564V34.061c-.233-.538-.52-.781-.859-.781a1,1,0,0,0-.73.432l-.247-.3c.917-.8,2.218-2.082,3.036-2.963a26.708,26.708,0,0,0,2.7,2.7v.025a1.147,1.147,0,0,0-.753,1.079V42.2c.442.591.781.808,1.169.808.211,0,.471-.024.836-.484l.207.214-2.967,3.236A34.6,34.6,0,0,0,827.923,43.6Zm6.3-2.291V35.679a1.026,1.026,0,0,0-.6-1v-.027a30.082,30.082,0,0,0,5.676-4.231,29.254,29.254,0,0,0,4.583,2.7v.028h0A1.053,1.053,0,0,0,843.3,34.2V41.69a1.062,1.062,0,0,0,.471,1v.027a16.9,16.9,0,0,0-5.7,3.263C835.573,44.736,834.221,43.5,834.221,41.312Zm3.151-.377c0,1.429,1.56,2.481,2.759,3.047h.025V34.465a18.188,18.188,0,0,1-2.76-1.778h-.024Zm92.905.941V35.921a1.131,1.131,0,0,0-.835-1.132v-.026a62.671,62.671,0,0,0,6.12-4.311c.832,1.024,2.473,2.829,3.438,3.8-.781.431-5.261,3.4-5.574,5.011v2.076c0,1.268,2.006,2.184,3.047,2.184.443,0,1.04-.594,1.613-1.214l.287.3-3.436,3.37C931.942,45.382,930.277,43.656,930.277,41.876Zm3.154-3.906h.024a10.353,10.353,0,0,1,2.527-2.4c-.809-.861-1.98-2.291-2.527-2.992h-.024Zm-187.95,5.667a5.032,5.032,0,0,0-4.292,2.1l-.306-.237c1.931-2.417,2.616-3.153,2.616-4.808V34.285c0-2,1.3-2.97,3.661-4.547l.251.237c-.939.841-1.114,1.551-1.114,3.048v5.99a3.586,3.586,0,0,1-1.272,2.707v.027a6.331,6.331,0,0,1,2.59-.567,6.462,6.462,0,0,1,.738.063V29.076a28.864,28.864,0,0,1-3.864.4,2.709,2.709,0,0,1-2.972-2.731c0-1.789,1.093-2.682,2.9-2.734l.153.683c-.739-.105-1.982,0-1.982.946,0,.683.584.841,1.879.841,1.372,0,3.735-.6,5.716-.6,3.76,0,5.107,2.049,5.107,4.888v9.117c0,1.156.229,1.341.609,1.394v.052a45.024,45.024,0,0,0-6.047,4.573A5.678,5.678,0,0,0,745.482,43.637Zm3.254-7.226v4.9a5.854,5.854,0,0,1,3.152,1.67h.024V36.411a3.839,3.839,0,0,0-1.6-.341A3.979,3.979,0,0,0,748.735,36.411Zm3.176-.367V33.889a4.078,4.078,0,0,1-1.6.29,4.214,4.214,0,0,1-1.576-.29v2.155a4.25,4.25,0,0,1,1.576-.288A4.112,4.112,0,0,1,751.911,36.044Zm-3.176-7.008v4.486a3.968,3.968,0,0,0,1.576.342,3.826,3.826,0,0,0,1.6-.342V31.946c0-2.129-.381-2.969-1.958-2.969C749.508,28.977,749.109,29,748.735,29.036Zm-17.353,13.5V34.678a29.287,29.287,0,0,1-2.694-1.972h-.024v9.355a1.556,1.556,0,0,0,1.166.788c.281,0,.381-.079.762-.473l.229.21c-.787.841-2.185,2.391-2.9,3.153a27.587,27.587,0,0,0-2.948-2.338v-.025c.484-.235.61-.684.61-1.444V34.1c-.2-.368-.533-.761-.786-.761-.23,0-.383.052-.688.342l-.152-.184c.965-.974,2.135-2.209,2.719-2.891l1.956,1.865c.508-.393,1.575-1.313,2.135-1.865a37.582,37.582,0,0,0,4.346,2.968V33.6a1.161,1.161,0,0,0-.661,1.13v7.359a1.19,1.19,0,0,0,.964,1.183c.254,0,.459-.185.738-.527l.229.212c-.686.735-1.853,2.127-2.413,2.812A3.446,3.446,0,0,1,731.382,42.536Zm-52.051,0V34.678a29.369,29.369,0,0,1-2.692-1.972h-.028v9.328a1.516,1.516,0,0,0,1.118.815c.357,0,.434-.079.814-.473l.228.21c-.787.814-2.159,2.337-2.9,3.153a29.576,29.576,0,0,0-2.921-2.338v-.026c.457-.209.584-.709.584-1.471V29.921c0-2.5,2.42-4.135,3.971-5l.2.274c-.686.511-1.117,1.5-1.117,3.232v4.046c.5-.393,1.57-1.323,2.133-1.865a37.969,37.969,0,0,0,4.344,2.969V33.6a1.161,1.161,0,0,0-.66,1.13v7.359a1.189,1.189,0,0,0,.965,1.183c.253,0,.458-.184.737-.527l.229.211c-.675.731-1.861,2.129-2.413,2.812A3.447,3.447,0,0,1,679.332,42.536Zm78.219.866v-.027c.382-.157.585-.6.585-1.524V34.125c-.229-.526-.509-.762-.84-.762a.975.975,0,0,0-.709.42l-.28-.287c.89-.79,2.21-2.024,3-2.891a26.12,26.12,0,0,0,2.642,2.627v.027a1.046,1.046,0,0,0-.738,1.049v7.753c.433.58.761.788,1.143.788.2,0,.434-.026.788-.473l.229.21-2.9,3.154A33.912,33.912,0,0,0,757.551,43.4Zm-38.162.42c-.761.736-1.041,1.078-1.8,1.918a3.992,3.992,0,0,1-3.708-4.046c0-2.941,2.54-4.729,4.216-5.439a14.567,14.567,0,0,0-3.48-3.416v-.024l2.211-2.208a2.252,2.252,0,0,0,1.625,1.156,2.55,2.55,0,0,0,1.982-1.156c.458.525,2.007,1.943,2.769,2.6v.026c-.534.342-.736.421-.736,1.5v7.331c.153.209.534.788,1.144.788.355,0,.507-.159.787-.473l.229.21c-2.694,2.917-2.9,3.154-2.9,3.154A27.5,27.5,0,0,0,719.389,43.822Zm-2.794-3.5c0,1.734,1.042,3.074,2.362,3.074a.529.529,0,0,0,.432-.184v-3.81a4.574,4.574,0,0,0-1.016-2.759A4.094,4.094,0,0,0,716.594,40.326Zm-.1-6.673v.026a13.931,13.931,0,0,1,2.871,3.521h.025V33.5l-.584-.6A3.329,3.329,0,0,1,716.493,33.654ZM763.9,41.746V35.939a1.111,1.111,0,0,0-.815-1.105v-.025a60.463,60.463,0,0,0,5.971-4.2c.815,1,2.412,2.758,3.355,3.7-.762.42-5.133,3.311-5.437,4.889v2.023c0,1.236,1.955,2.128,2.969,2.128.433,0,1.018-.579,1.576-1.184l.28.29-3.352,3.284C765.53,45.16,763.9,43.48,763.9,41.746Zm3.074-3.811H767a10.117,10.117,0,0,1,2.466-2.337c-.787-.841-1.93-2.235-2.466-2.917h-.023Zm-82.008,3.811V35.939a1.105,1.105,0,0,0-.813-1.105v-.025a60.885,60.885,0,0,0,5.971-4.2c.813,1,2.416,2.758,3.355,3.7-.762.42-5.134,3.311-5.438,4.889v2.023c0,1.237,1.956,2.128,2.973,2.128.432,0,1.016-.579,1.575-1.184l.278.29-3.352,3.284C686.6,45.16,684.971,43.48,684.971,41.746Zm3.075-3.811h.024a10.085,10.085,0,0,1,2.466-2.337c-.788-.841-1.931-2.235-2.466-2.917h-.024Zm96.591,3.259V35.7a1,1,0,0,0-.584-.975V34.7a29.373,29.373,0,0,0,5.539-4.127,28.261,28.261,0,0,0,4.471,2.628v.027h0a1.027,1.027,0,0,0-.559,1.024v7.3a1.041,1.041,0,0,0,.457.975v.024a16.51,16.51,0,0,0-5.563,3.179C785.957,44.529,784.637,43.321,784.637,41.194Zm3.073-.339c0,1.389,1.525,2.389,2.693,2.939h.026V34.52a17.815,17.815,0,0,1-2.695-1.735h-.024Zm69.76-2.589c-.365,0-.6.244-1.1.757l-.26-.244c.444-.486,2.162-2.453,2.475-2.858a15.57,15.57,0,0,0,3.332,1.535c.311,0,.6-.187,1.014-.727l.262.244c-.782.89-1.693,1.942-2.472,2.83A13.33,13.33,0,0,0,857.471,38.265ZM757.3,27.977a.8.8,0,0,0-.684.317l-.256-.263c.815-.761,2.059-2.023,2.49-2.5.865.921,1.524,1.472,1.83,1.472a.954.954,0,0,0,.712-.29l.254.238c-.866.761-1.652,1.68-2.49,2.523C758.188,28.5,757.7,27.977,757.3,27.977Zm130.358-.221a.824.824,0,0,0-.7.323l-.261-.269c.833-.781,2.11-2.075,2.553-2.561.885.943,1.562,1.508,1.875,1.508a.989.989,0,0,0,.729-.3l.258.242c-.884.781-1.692,1.726-2.552,2.587C888.568,28.293,888.071,27.755,887.656,27.755Zm-59.556,0a.827.827,0,0,0-.7.323l-.259-.269c.832-.781,2.107-2.075,2.551-2.561.884.943,1.559,1.508,1.874,1.508a.979.979,0,0,0,.727-.3l.263.242c-.886.781-1.695,1.726-2.554,2.587C829.013,28.293,828.519,27.755,828.1,27.755Z" transform="translate(-656.997 -24.009)"/>
</svg>
